<svg version="1.1" xmlns="http://www.w3.org/2000/svg" viewBox="0 0 1329.6018463484772 312.99999999999994" width="1329.6018463484772" height="312.99999999999994">
  <!-- svg-source:excalidraw -->
  
  <defs>
    <style class="style-fonts">
      @font-face {
        font-family: "Virgil";
        src: url("https://excalidraw.com/Virgil.woff2");
      }
      @font-face {
        font-family: "Cascadia";
        src: url("https://excalidraw.com/Cascadia.woff2");
      }
    </style>
    
  </defs>
  <rect x="0" y="0" width="1329.6018463484772" height="312.99999999999994" fill="#ffffff"></rect><g stroke-opacity="0.4" fill-opacity="0.4" stroke-linecap="round" transform="translate(881.6018463484772 10) rotate(0 219 146.49999999999997)"><path d="M10.19 28.74 C10.19 28.74, 10.19 28.74, 10.19 28.74 M10.19 28.74 C10.19 28.74, 10.19 28.74, 10.19 28.74 M7.31 38.15 C11.77 32.65, 20.45 18.89, 26.33 16.27 M7.31 38.15 C14.11 29.22, 22.22 23.57, 26.33 16.27 M3.77 48.32 C16.93 35.16, 29.47 21.9, 37.23 9.83 M3.77 48.32 C13.44 36.85, 22.97 25.04, 37.23 9.83 M1.54 56.99 C16.87 37.98, 32.6 18.92, 48.77 2.65 M1.54 56.99 C15.42 40.15, 28.92 25.81, 48.77 2.65 M1.93 62.63 C22.93 41.77, 35.83 24.64, 54.42 2.25 M1.93 62.63 C19.15 41.96, 37.15 23.45, 54.42 2.25 M1.67 69.03 C19.84 52.55, 36.42 31.52, 60.06 1.86 M1.67 69.03 C24.89 44.09, 44.03 19.55, 60.06 1.86 M1.41 75.42 C22.82 55.92, 42.38 30.58, 66.36 0.71 M1.41 75.42 C21.11 53.79, 40.49 32.3, 66.36 0.71 M1.8 81.07 C27.58 53.49, 46.93 26.89, 72 0.31 M1.8 81.07 C25.82 56.6, 46.06 32.34, 72 0.31 M1.54 87.47 C34.56 50.17, 56.71 17.49, 75.68 2.18 M1.54 87.47 C25.64 61.6, 46.49 34.47, 75.68 2.18 M1.94 93.11 C27.07 66.84, 43.65 44.59, 81.32 1.79 M1.94 93.11 C17.89 73.68, 35.16 52.91, 81.32 1.79 M1.67 99.51 C19.24 83.12, 39.29 59.95, 86.31 2.15 M1.67 99.51 C27.91 67.97, 55.4 33.75, 86.31 2.15 M1.41 105.9 C36.58 69.1, 65.86 33.77, 91.29 2.51 M1.41 105.9 C29.2 75.3, 56.76 43.74, 91.29 2.51 M1.81 111.55 C30.42 80.95, 54.94 47.23, 96.94 2.11 M1.81 111.55 C30.55 81.34, 55.85 47.37, 96.94 2.11 M1.55 117.95 C33.97 81.84, 61 45.47, 101.92 2.47 M1.55 117.95 C32.74 89.97, 58.84 55.42, 101.92 2.47 M1.28 124.34 C28.07 90.22, 57.69 63.98, 107.57 2.08 M1.28 124.34 C39.69 79.38, 76.99 37.59, 107.57 2.08 M1.68 129.99 C32.63 94.87, 69.8 60.11, 112.55 2.44 M1.68 129.99 C37.98 87.02, 73.79 45.96, 112.55 2.44 M1.42 136.38 C48.84 81.73, 91.95 33.36, 118.2 2.05 M1.42 136.38 C41.15 93.85, 76.82 53.43, 118.2 2.05 M1.16 142.78 C25.75 107.61, 61.75 73.61, 123.18 2.41 M1.16 142.78 C28.52 109.34, 56.45 76.61, 123.18 2.41 M1.55 148.42 C43.5 101.79, 81.44 54.86, 128.83 2.01 M1.55 148.42 C49.96 96.06, 94.22 45.24, 128.83 2.01 M1.29 154.82 C46.91 107.59, 85.18 60.58, 133.81 2.37 M1.29 154.82 C51.49 96.51, 104.21 39.18, 133.81 2.37 M1.03 161.22 C39.85 115.56, 83.92 71.16, 139.46 1.98 M1.03 161.22 C38.97 119.42, 76.34 77.69, 139.46 1.98 M1.42 166.86 C30.92 129.22, 66.41 95.53, 144.44 2.34 M1.42 166.86 C57.73 102.56, 115.65 34.51, 144.44 2.34 M1.16 173.26 C42.75 129.05, 82.69 76.78, 150.09 1.94 M1.16 173.26 C42.46 123.72, 84.25 77.77, 150.09 1.94 M0.9 179.66 C44.29 135.96, 83.2 85.21, 155.07 2.3 M0.9 179.66 C43.15 128.83, 88.41 78.31, 155.07 2.3 M1.29 185.3 C49.31 127.6, 96.07 74.08, 160.72 1.91 M1.29 185.3 C63.44 113.93, 127.71 40.92, 160.72 1.91 M1.03 191.7 C53.66 128.17, 108.05 63.96, 165.7 2.27 M1.03 191.7 C49.26 137.33, 97.32 82.01, 165.7 2.27 M1.43 197.34 C63.67 130.11, 125.27 54.45, 171.35 1.87 M1.43 197.34 C49.16 145.06, 95.83 87.53, 171.35 1.87 M1.17 203.74 C56.58 138.46, 116.88 71.59, 176.33 2.23 M1.17 203.74 C47.13 154.78, 92.73 101.71, 176.33 2.23 M0.9 210.14 C37.45 167.91, 74.2 119.51, 181.32 2.59 M0.9 210.14 C69.1 134.08, 137.71 58.13, 181.32 2.59 M1.3 215.78 C55.31 148.56, 114.2 83.01, 186.96 2.2 M1.3 215.78 C43.9 163.82, 87.31 111.54, 186.96 2.2 M1.04 222.18 C46.46 166.66, 92.8 113.85, 191.95 2.56 M1.04 222.18 C66.44 145.38, 132 69.71, 191.95 2.56 M0.78 228.58 C64.74 157.08, 130.73 76.76, 197.59 2.16 M0.78 228.58 C57.73 161.77, 116.25 91.13, 197.59 2.16 M1.83 233.47 C77.58 141.68, 161 51.02, 202.58 2.52 M1.83 233.47 C55.61 173.08, 107.04 111.85, 202.58 2.52 M2.88 238.35 C55.44 183.04, 109.54 118.93, 208.22 2.13 M2.88 238.35 C74.49 155.14, 145.09 74.92, 208.22 2.13 M3.93 243.24 C84.23 144.89, 167.28 47.54, 213.21 2.49 M3.93 243.24 C48.18 186.69, 96.75 133.16, 213.21 2.49 M4.98 248.13 C69.72 179.26, 133.26 105.79, 218.85 2.1 M4.98 248.13 C56.75 188.75, 107.53 129.88, 218.85 2.1 M6.03 253.02 C87.29 160.24, 172.4 63.79, 223.84 2.46 M6.03 253.02 C79.28 170.56, 150.77 87.22, 223.84 2.46 M7.08 257.91 C69.74 187.05, 131.34 114.28, 229.48 2.06 M7.08 257.91 C75.96 180.63, 147.83 101.27, 229.48 2.06 M10.1 260.53 C72.9 190.55, 134.8 119.34, 234.47 2.42 M10.1 260.53 C76.24 185.66, 139.89 107.97, 234.47 2.42 M11.81 264.67 C61.07 208.07, 107.57 155.94, 240.11 2.03 M11.81 264.67 C71.33 192.81, 135.63 117.74, 240.11 2.03 M14.17 268.04 C99.95 169.46, 180.37 73.46, 245.1 2.39 M14.17 268.04 C71.73 202.09, 125.69 141.63, 245.1 2.39 M16.53 271.42 C80.71 191.9, 148.24 116.21, 250.74 1.99 M16.53 271.42 C82.71 195.21, 148.11 121.97, 250.74 1.99 M18.89 274.8 C96.68 181.52, 176.07 90.25, 255.73 2.35 M18.89 274.8 C89.15 193.39, 160.86 110.47, 255.73 2.35 M21.91 277.43 C89.25 198.39, 157.56 116.52, 261.37 1.96 M21.91 277.43 C80.95 208.1, 137.6 142.94, 261.37 1.96 M24.93 280.05 C91.41 205.82, 159.85 128.87, 266.36 2.32 M24.93 280.05 C79.45 212.2, 140.12 143.8, 266.36 2.32 M28.61 281.92 C124.49 176.06, 216.93 68.37, 271.35 2.68 M28.61 281.92 C106.56 190.73, 189.36 95.89, 271.35 2.68 M32.28 283.79 C89.88 217.45, 151.53 145.69, 276.99 2.28 M32.28 283.79 C90.66 220.98, 144.74 158.71, 276.99 2.28 M35.96 285.66 C121.93 188.86, 207.2 86.6, 281.98 2.64 M35.96 285.66 C117.86 193.08, 201.51 100.36, 281.98 2.64 M38.98 288.28 C109.78 203.04, 181.16 120.33, 287.62 2.25 M38.98 288.28 C92.59 223.68, 148.96 159.17, 287.62 2.25 M42.65 290.15 C117.26 204.59, 192.75 117.3, 292.61 2.61 M42.65 290.15 C97.25 228.03, 150.89 167.01, 292.61 2.61 M47.64 290.51 C112.41 214.79, 177.92 145.44, 298.25 2.21 M47.64 290.51 C101.43 228.47, 158.01 165.96, 298.25 2.21 M51.97 291.63 C151.98 179.53, 250.96 63.89, 303.24 2.57 M51.97 291.63 C146.25 185.62, 238.81 77.54, 303.24 2.57 M56.3 292.74 C147.74 188.18, 238.01 80.26, 308.88 2.18 M56.3 292.74 C112.02 226.14, 169.58 160.9, 308.88 2.18 M61.29 293.1 C146.24 196.07, 236.11 92.25, 313.87 2.54 M61.29 293.1 C115.42 229.25, 170.09 166.75, 313.87 2.54 M65.62 294.22 C126.66 227.87, 182.94 159.69, 319.51 2.14 M65.62 294.22 C127.15 221.55, 194.15 146.58, 319.51 2.14 M71.26 293.82 C137.69 221.45, 201.61 147.46, 324.5 2.51 M71.26 293.82 C164.86 184.56, 258.01 77.74, 324.5 2.51 M76.25 294.18 C143.01 215.82, 211.15 138.64, 330.14 2.11 M76.25 294.18 C162.2 196.62, 246.13 99, 330.14 2.11 M81.89 293.79 C135.41 232.47, 188.89 172.72, 335.13 2.47 M81.89 293.79 C148.05 218.52, 214.62 141.61, 335.13 2.47 M86.88 294.15 C150.34 218.68, 212.37 148.58, 340.77 2.08 M86.88 294.15 C158.41 211.06, 232.8 123.81, 340.77 2.08 M92.52 293.75 C172.16 203.02, 250.54 111.84, 345.76 2.44 M92.52 293.75 C178.87 195.47, 266.23 92.11, 345.76 2.44 M97.51 294.11 C189.36 189.05, 280.16 84.84, 351.4 2.04 M97.51 294.11 C195.27 178.8, 294.69 63.11, 351.4 2.04 M103.15 293.72 C162.79 229.24, 221.24 160.76, 356.39 2.4 M103.15 293.72 C174.93 211.99, 243.33 134.22, 356.39 2.4 M108.14 294.08 C193.86 195.64, 282.11 93.74, 361.38 2.76 M108.14 294.08 C184.71 205.65, 262.51 117.97, 361.38 2.76 M113.78 293.68 C168.64 234.99, 216.8 176.68, 367.02 2.37 M113.78 293.68 C195.47 201.41, 273.16 110, 367.02 2.37 M118.77 294.05 C217.56 180.47, 314.93 70.7, 373.97 0.46 M118.77 294.05 C188.96 214.62, 262.1 131.15, 373.97 0.46 M123.75 294.41 C201.12 205.12, 273.31 120.4, 378.31 1.58 M123.75 294.41 C215.44 189.82, 303.33 87.88, 378.31 1.58 M129.4 294.01 C227.05 178.94, 330.89 65.78, 383.29 1.94 M129.4 294.01 C192.22 226.81, 252.07 157.39, 383.29 1.94 M134.38 294.37 C216 199.2, 301.59 105.3, 387.62 3.05 M134.38 294.37 C204.15 213.41, 274.82 133.05, 387.62 3.05 M140.03 293.98 C221.12 203.77, 300.44 110.88, 391.95 4.17 M140.03 293.98 C207.99 219.66, 272.02 145.19, 391.95 4.17 M145.01 294.34 C227.87 203.2, 311.36 104.84, 396.94 4.53 M145.01 294.34 C197.09 233.92, 251.03 173.84, 396.94 4.53 M150.66 293.94 C217.35 216.32, 283.27 142.08, 400.62 6.4 M150.66 293.94 C215.43 215.13, 283.7 140.79, 400.62 6.4 M155.65 294.3 C226.41 209.91, 301.85 123.32, 404.29 8.27 M155.65 294.3 C222.69 217.75, 287.17 141.84, 404.29 8.27 M161.29 293.91 C240.65 202.38, 318.02 111.13, 407.97 10.14 M161.29 293.91 C258.36 185.21, 354.28 77.43, 407.97 10.14 M166.28 294.27 C225.37 229.6, 285.23 160.78, 411.64 12.01 M166.28 294.27 C253.6 192.06, 345.47 87.99, 411.64 12.01 M171.92 293.87 C271.78 181.91, 365.87 73.78, 415.32 13.88 M171.92 293.87 C260.23 195.65, 344.74 96.41, 415.32 13.88 M176.91 294.23 C256.7 204.74, 336.17 117.66, 417.68 17.25 M176.91 294.23 C245.22 216.96, 311 138.78, 417.68 17.25 M182.55 293.84 C263.82 194.68, 348.16 98.87, 420.7 19.88 M182.55 293.84 C259.92 204.71, 338.11 114.9, 420.7 19.88 M187.54 294.2 C266.77 202.89, 343.57 114.99, 423.72 22.5 M187.54 294.2 C268.6 202.12, 349.29 109.77, 423.72 22.5 M193.18 293.8 C252.2 224.44, 316.46 153.88, 426.74 25.13 M193.18 293.8 C256.87 220.86, 318.43 149.25, 426.74 25.13 M198.17 294.16 C247.59 233.86, 299.21 176.66, 428.44 29.26 M198.17 294.16 C274.62 202.07, 352.45 111.41, 428.44 29.26 M203.81 293.77 C291.49 193.92, 375.96 99.79, 430.8 32.64 M203.81 293.77 C283.75 204.75, 365.45 113.39, 430.8 32.64 M208.8 294.13 C283.09 210.09, 360.65 121.78, 433.17 36.02 M208.8 294.13 C263.69 229.31, 320.78 165.62, 433.17 36.02 M213.78 294.49 C284.93 213.61, 361.16 130.82, 434.22 40.91 M213.78 294.49 C294.47 201.49, 376.12 107.6, 434.22 40.91 M219.43 294.09 C305.65 192.35, 389.93 98.97, 435.27 45.8 M219.43 294.09 C275.55 230.54, 331.7 165.64, 435.27 45.8 M224.41 294.45 C294.02 211.37, 366.99 125.56, 436.32 50.68 M224.41 294.45 C290 219.76, 357.02 141.22, 436.32 50.68 M230.06 294.06 C295.18 212.87, 366.76 134.86, 437.37 55.57 M230.06 294.06 C307.88 202.79, 390.18 110.71, 437.37 55.57 M235.04 294.42 C284.86 237.36, 335.37 177.79, 438.42 60.46 M235.04 294.42 C281.61 245.5, 324.1 193.43, 438.42 60.46 M240.69 294.03 C292.37 236.62, 343.85 175.51, 439.47 65.35 M240.69 294.03 C288.55 236.12, 339.56 177.43, 439.47 65.35 M245.67 294.39 C291.15 247.56, 334.94 199.91, 439.21 71.75 M245.67 294.39 C302.39 229.21, 360.78 164.97, 439.21 71.75 M251.32 293.99 C300.21 241.86, 345.87 189.23, 438.95 78.14 M251.32 293.99 C306.8 228.4, 362.59 166.94, 438.95 78.14 M256.3 294.35 C307.02 233.98, 353.72 175.75, 439.34 83.79 M256.3 294.35 C326.64 213.04, 397.44 134.05, 439.34 83.79 M261.95 293.96 C301.47 247.15, 337.63 207.45, 439.08 90.19 M261.95 293.96 C321.88 223.94, 380.14 156.23, 439.08 90.19 M266.93 294.32 C330.8 219.58, 400.81 145.88, 439.48 95.83 M266.93 294.32 C324.72 226.13, 383.73 158.55, 439.48 95.83 M272.58 293.92 C307.11 254.29, 341.38 215.46, 439.22 102.23 M272.58 293.92 C317.1 244.05, 359.82 196.74, 439.22 102.23 M277.56 294.28 C320.62 243.83, 367.61 188.07, 438.95 108.62 M277.56 294.28 C313.61 250.91, 353.74 209.66, 438.95 108.62 M283.21 293.89 C329.4 246.23, 375.66 191.69, 439.35 114.27 M283.21 293.89 C330.41 237.8, 382.2 180.15, 439.35 114.27 M288.19 294.25 C340.82 236.52, 395.06 175.31, 439.09 120.66 M288.19 294.25 C340.59 235.24, 388.47 180.16, 439.09 120.66 M293.84 293.85 C341.85 245.05, 379.79 192.74, 439.48 126.31 M293.84 293.85 C325.05 259.2, 355.69 220.91, 439.48 126.31 M298.82 294.21 C347.9 238.29, 389.03 188.74, 439.22 132.71 M298.82 294.21 C345.8 244.33, 390.24 192.13, 439.22 132.71 M303.81 294.57 C340.98 249.36, 382.41 208.68, 438.96 139.1 M303.81 294.57 C331.49 260.4, 362.2 224.96, 438.96 139.1 M309.45 294.18 C351.07 245.09, 397.73 192.79, 439.35 144.75 M309.45 294.18 C349.12 245.6, 387.72 200.16, 439.35 144.75 M314.44 294.54 C344.12 259.34, 374.54 219.25, 439.09 151.14 M314.44 294.54 C347.25 259.58, 379.74 219.97, 439.09 151.14 M320.08 294.14 C354.43 254.61, 382.27 218.59, 439.49 156.79 M320.08 294.14 C345.57 265.78, 372.74 234.12, 439.49 156.79 M325.07 294.5 C349.47 269.65, 375.2 238.46, 439.22 163.19 M325.07 294.5 C352.99 263.55, 381.72 231.08, 439.22 163.19 M330.71 294.11 C357.47 263.83, 391.78 231.38, 438.96 169.58 M330.71 294.11 C369.59 247.82, 408.94 203.94, 438.96 169.58 M335.7 294.47 C368.35 252.45, 406.32 205.61, 439.36 175.23 M335.7 294.47 C370.65 257.59, 404.73 216.63, 439.36 175.23 M341.34 294.08 C382.5 250.52, 421.99 206.36, 439.1 181.62 M341.34 294.08 C369.62 263.01, 399.5 228.03, 439.1 181.62 M346.33 294.44 C368.4 261.05, 396.45 231.84, 439.49 187.27 M346.33 294.44 C364.68 271.32, 386 247.39, 439.49 187.27 M351.97 294.04 C380.92 267.02, 405.48 231.59, 439.23 193.66 M351.97 294.04 C381.15 258.82, 412.55 225.56, 439.23 193.66 M356.96 294.4 C383.12 264.2, 414.38 232.92, 438.97 200.06 M356.96 294.4 C382.02 267.21, 406.41 236.65, 438.97 200.06 M362.6 294.01 C383.98 266.24, 413.53 236, 439.36 205.71 M362.6 294.01 C385.89 268.28, 406.72 242, 439.36 205.71 M366.93 295.12 C387.43 268.38, 411.52 246.09, 439.1 212.1 M366.93 295.12 C391.12 265.94, 415.71 237.09, 439.1 212.1 M372.58 294.73 C386.74 273.03, 402.99 256.45, 439.5 217.75 M372.58 294.73 C393.2 272.38, 413.69 247.72, 439.5 217.75 M378.88 293.58 C398.79 270.29, 414.1 253.6, 439.23 224.14 M378.88 293.58 C396.95 269.23, 417.27 246.15, 439.23 224.14 M384.52 293.18 C402.12 273.18, 415.56 251.69, 439.63 229.79 M384.52 293.18 C404.91 267.45, 426.71 246.2, 439.63 229.79 M390.82 292.03 C401.11 280.7, 415.22 261.71, 438.06 237.69 M390.82 292.03 C402.06 277.97, 414.93 265.06, 438.06 237.69 M398.43 289.37 C405.21 282.22, 417.72 269.21, 436.48 245.6 M398.43 289.37 C412.44 275.52, 424.39 260.07, 436.48 245.6 M405.39 287.47 C416.48 275.41, 430.36 264.29, 434.91 253.51 M405.39 287.47 C413.76 275.05, 423.8 265.64, 434.91 253.51" stroke="#ced4da" stroke-width="0.5" fill="none"></path><path d="M73.25 0 M73.25 0 C152.11 -4.56, 235.44 -0.06, 364.75 0 M73.25 0 C176.51 -4.25, 280.25 -3.41, 364.75 0 M364.75 0 C412.19 0.71, 436.33 24.29, 438 73.25 M364.75 0 C412.11 2.25, 437.7 26.27, 438 73.25 M438 73.25 C438.56 115.29, 439.29 166.12, 438 219.75 M438 73.25 C434.73 113.21, 436.73 153.63, 438 219.75 M438 219.75 C434.9 270.06, 415.72 290.17, 364.75 293 M438 219.75 C442.59 265.57, 411.38 292.55, 364.75 293 M364.75 293 C290.94 287.21, 220.76 291.46, 73.25 293 M364.75 293 C251.36 289.68, 136.42 288.71, 73.25 293 M73.25 293 C26.72 296.21, 0.58 271.02, 0 219.75 M73.25 293 C20.55 295.35, -1.43 270.19, 0 219.75 M0 219.75 C-2.39 186.6, 4.65 156.17, 0 73.25 M0 219.75 C-0.13 178.03, -2.2 138.85, 0 73.25 M0 73.25 C1.6 27.72, 21.27 -0.87, 73.25 0 M0 73.25 C-0.85 22.7, 23.02 1.87, 73.25 0" stroke="#000000" stroke-width="1" fill="none"></path></g><g stroke-linecap="round"><g transform="translate(914.9196070844716 140.36675513122634) rotate(0 -39.77580896138477 1.5773047787663401)"><path d="M-0.89 1.12 C-14.03 1.54, -66.75 2.42, -79.95 2.56 M0.84 0.66 C-12.28 0.73, -66.85 0.38, -80.39 0.82" stroke="#000000" stroke-width="1" fill="none"></path></g><g transform="translate(914.9196070844716 140.36675513122634) rotate(0 -39.77580896138477 1.5773047787663401)"><path d="M-27.01 13.53 C-21.85 11.26, -17.08 6.3, -2.75 1.79 M-28.5 11.53 C-19.58 8.68, -10.87 4.62, -1.45 1.97" stroke="#000000" stroke-width="1" fill="none"></path></g><g transform="translate(914.9196070844716 140.36675513122634) rotate(0 -39.77580896138477 1.5773047787663401)"><path d="M-27.41 -6.99 C-22.16 -4.98, -17.3 -5.68, -2.75 1.79 M-28.91 -8.99 C-19.8 -5.26, -10.96 -2.74, -1.45 1.97" stroke="#000000" stroke-width="1" fill="none"></path></g></g><mask></mask><g stroke-opacity="0.7" fill-opacity="0.7" stroke-linecap="round" transform="translate(658.6018463484772 64.99999999999994) rotate(0 85.5 85.50000000000001)"><path d="M14.18 71.95 C14.18 71.95, 14.18 71.95, 14.18 71.95 M14.18 71.95 C14.18 71.95, 14.18 71.95, 14.18 71.95 M7.35 85.89 C25.71 64.53, 40.74 50.94, 50.65 36.08 M7.35 85.89 C19.3 73.74, 30.09 60.34, 50.65 36.08 M7.75 91.54 C20.15 72.97, 38.47 56, 80.57 7.76 M7.75 91.54 C37.85 57.85, 66.41 25.48, 80.57 7.76 M10.11 94.92 C31.74 67.73, 57.37 41.85, 86.21 7.37 M10.11 94.92 C36.05 62, 66.02 31.88, 86.21 7.37 M13.13 97.54 C47.42 64.71, 73.66 32.58, 91.2 7.73 M13.13 97.54 C31.41 74.98, 49.06 58.2, 91.2 7.73 M15.49 100.92 C43.3 65.41, 77.78 28.77, 94.22 10.35 M15.49 100.92 C42.63 69.13, 70.54 37.54, 94.22 10.35 M17.86 104.3 C39.38 84.79, 55.14 61.72, 97.24 12.98 M17.86 104.3 C40.95 79.01, 60.92 52.68, 97.24 12.98 M20.87 106.92 C53.61 69.65, 84.76 39.84, 100.26 15.6 M20.87 106.92 C50.77 71.14, 80.76 34.97, 100.26 15.6 M23.89 109.55 C52.41 78.51, 85.85 39.19, 103.28 18.23 M23.89 109.55 C53.05 75.09, 81.23 41.4, 103.28 18.23 M26.91 112.17 C51.8 82.75, 79.12 53.14, 106.3 20.85 M26.91 112.17 C52.09 82.59, 79.25 55.44, 106.3 20.85 M29.93 114.79 C47.82 85.05, 71.94 61.28, 109.31 23.47 M29.93 114.79 C61.06 78.09, 89.56 40.15, 109.31 23.47 M32.29 118.17 C55.82 88.52, 83.71 57.72, 112.33 26.1 M32.29 118.17 C55.17 92.98, 80.31 62.97, 112.33 26.1 M35.31 120.8 C60.9 88.12, 89.68 53.78, 115.35 28.72 M35.31 120.8 C60.7 88.95, 90.73 58.91, 115.35 28.72 M38.33 123.42 C64.19 96.44, 85.99 71.77, 117.71 32.1 M38.33 123.42 C64.82 90.89, 92.47 56.11, 117.71 32.1 M41.35 126.05 C71.7 94.14, 96.62 61.02, 120.73 34.73 M41.35 126.05 C64.94 101.35, 88.83 73.44, 120.73 34.73 M43.71 129.43 C61.09 111.38, 77.46 89.02, 123.75 37.35 M43.71 129.43 C59.91 112.9, 78.87 92.43, 123.75 37.35 M46.73 132.05 C69.69 105.88, 85.92 85.6, 126.12 40.73 M46.73 132.05 C63.69 111.51, 77.34 94.72, 126.12 40.73 M49.75 134.67 C78.26 104.55, 104.57 74.57, 129.13 43.35 M49.75 134.67 C67.69 111.71, 88.28 88.37, 129.13 43.35 M52.77 137.3 C76.57 113.4, 98.97 92.13, 132.15 45.98 M52.77 137.3 C79.95 106.87, 104.74 75.78, 132.15 45.98 M55.13 140.68 C80.84 111.31, 101.63 87.29, 134.52 49.36 M55.13 140.68 C87.97 104.2, 118.32 70.18, 134.52 49.36 M58.15 143.3 C74.01 122.48, 98.53 102.99, 137.53 51.98 M58.15 143.3 C89.5 108.84, 119.83 70.14, 137.53 51.98 M61.17 145.93 C90.86 113.45, 115.85 76.04, 140.55 54.61 M61.17 145.93 C75.38 124.96, 92.13 107, 140.55 54.61 M64.19 148.55 C85.86 119.8, 106.18 93.11, 142.92 57.98 M64.19 148.55 C81.36 125.15, 99.45 105.84, 142.92 57.98 M66.55 151.93 C82.48 132.28, 100.14 107.82, 145.93 60.61 M66.55 151.93 C94.89 117.26, 125.6 85.16, 145.93 60.61 M69.57 154.55 C99.45 121.64, 132.93 84.38, 148.95 63.23 M69.57 154.55 C97.34 120.95, 124.4 88.84, 148.95 63.23 M72.59 157.18 C90.81 139.92, 108.78 119.52, 151.32 66.61 M72.59 157.18 C86.97 135.33, 105.82 118, 151.32 66.61 M75.61 159.8 C99.79 142.14, 115.16 114.09, 154.34 69.24 M75.61 159.8 C103.76 125.08, 134.41 93.45, 154.34 69.24 M79.28 161.67 C109.19 133.99, 131.55 99.71, 157.35 71.86 M79.28 161.67 C96.17 142.85, 114.58 120.64, 157.35 71.86 M82.3 164.29 C97.47 145.41, 112.55 121.57, 159.72 75.24 M82.3 164.29 C106.13 133, 135.99 103.06, 159.72 75.24 M85.32 166.92 C100.56 149.28, 121.57 134.11, 162.08 78.62 M85.32 166.92 C105.91 139.89, 127.35 115.96, 162.08 78.62 M91.62 165.77 C117.23 138.42, 142.45 109.06, 164.44 82 M91.62 165.77 C109.45 142.26, 129.53 118.21, 164.44 82 M103.17 158.58 C119.61 138.46, 143.94 115.84, 167.46 84.62 M103.17 158.58 C117.78 142.44, 134.98 123.21, 167.46 84.62 M71.81 156.7 C71.81 156.7, 71.81 156.7, 71.81 156.7 M71.81 156.7 C71.81 156.7, 71.81 156.7, 71.81 156.7 M85.75 163.52 C67.6 146.47, 45.45 128.97, 24.62 110.38 M85.75 163.52 C74.1 150.23, 57.51 141.9, 24.62 110.38 M91.4 163.13 C55.43 134.28, 26.75 109.3, 6.87 89.65 M91.4 163.13 C65.25 138.45, 40.12 115.02, 6.87 89.65 M94.77 160.77 C65.81 136.73, 37.18 111.56, 5.72 83.35 M94.77 160.77 C63.17 132.03, 29.97 104.15, 5.72 83.35 M98.15 158.4 C70.56 129.54, 37.05 100.43, 8.34 80.33 M98.15 158.4 C82.36 140.06, 61.21 126.04, 8.34 80.33 M100.78 155.39 C80.15 139.58, 62.47 121.09, 10.97 77.31 M100.78 155.39 C65.47 122.71, 30.12 92.03, 10.97 77.31 M104.16 153.02 C83.04 130.78, 54.1 110.93, 12.84 73.64 M104.16 153.02 C84.07 136.38, 64.76 118.5, 12.84 73.64 M106.78 150 C78.02 119.21, 41.58 91.21, 15.46 70.62 M106.78 150 C82.37 133.11, 58.38 110.04, 15.46 70.62 M109.41 146.98 C81.22 122.78, 56.55 97.7, 18.09 67.6 M109.41 146.98 C77.03 118.85, 44.99 89.98, 18.09 67.6 M112.78 144.62 C77.59 108.71, 41.97 79.53, 21.46 65.24 M112.78 144.62 C93.42 127.32, 73.73 106.89, 21.46 65.24 M115.41 141.6 C82.53 117.79, 54.93 84.46, 24.09 62.22 M115.41 141.6 C81.68 112.16, 51.32 84.85, 24.09 62.22 M118.03 138.58 C91.66 120.97, 72.62 98.09, 26.71 59.2 M118.03 138.58 C93.64 121.78, 73.63 103.12, 26.71 59.2 M120.66 135.57 C102.33 119.74, 82.26 102, 29.34 56.18 M120.66 135.57 C87.57 108.02, 58.08 80.05, 29.34 56.18 M124.04 133.2 C102.82 114.29, 76.11 95.84, 32.72 53.82 M124.04 133.2 C97.27 105.6, 67.36 81.47, 32.72 53.82 M126.66 130.18 C101.5 109.02, 78.26 84.91, 35.34 50.8 M126.66 130.18 C105.93 112.89, 81.78 92.14, 35.34 50.8 M129.28 127.16 C101.4 104.33, 76.98 77.91, 37.96 47.78 M129.28 127.16 C97.57 96.48, 61.49 66.26, 37.96 47.78 M132.66 124.8 C106.11 101.36, 76.34 73.78, 41.34 45.42 M132.66 124.8 C97.64 96.62, 60.12 62.33, 41.34 45.42 M135.29 121.78 C106.8 92.27, 72.87 65.9, 43.97 42.4 M135.29 121.78 C111.91 100.42, 92.97 82.99, 43.97 42.4 M137.91 118.76 C108.41 94.77, 81.84 74.59, 46.59 39.38 M137.91 118.76 C112.93 100.52, 91.43 79.71, 46.59 39.38 M140.54 115.75 C111.54 86.18, 80.5 63.59, 49.97 37.02 M140.54 115.75 C106.96 84.42, 69.57 55.88, 49.97 37.02 M143.92 113.38 C123.58 90.52, 96.75 71.61, 52.6 34 M143.92 113.38 C111.08 85.21, 75.8 54.38, 52.6 34 M146.54 110.36 C123.36 86, 98.76 64.67, 55.22 30.98 M146.54 110.36 C126.12 90.86, 108.21 75.79, 55.22 30.98 M149.16 107.35 C111.1 77.83, 73.39 44.44, 58.6 28.62 M149.16 107.35 C117.94 80.34, 87.48 54.13, 58.6 28.62 M151.79 104.33 C122.36 79.7, 96.16 59.61, 61.22 25.6 M151.79 104.33 C114.73 72.67, 80.22 43.72, 61.22 25.6 M155.17 101.96 C122.05 68.75, 82.99 41.11, 63.85 22.58 M155.17 101.96 C126.93 78.64, 98.73 54.23, 63.85 22.58 M157.79 98.94 C121.57 71.2, 90.74 36.24, 67.23 20.22 M157.79 98.94 C135.95 80.06, 112.48 60.29, 67.23 20.22 M160.42 95.93 C136.9 75.84, 115.62 55.12, 69.85 17.2 M160.42 95.93 C138.45 76.38, 116.81 55.89, 69.85 17.2 M162.28 92.25 C140.17 74.46, 125.7 55.86, 72.47 14.18 M162.28 92.25 C139.4 71.27, 116.64 53.23, 72.47 14.18 M164.91 89.23 C140.17 70.92, 119.53 53.23, 75.85 11.82 M164.91 89.23 C142.48 69.73, 121.35 52.31, 75.85 11.82 M167.53 86.21 C141.57 62.1, 113.44 42.28, 78.48 8.8 M167.53 86.21 C139.16 58.58, 110.82 36.32, 78.48 8.8 M159.59 74.01 C137.33 56.68, 118.66 41.74, 81.1 5.78 M159.59 74.01 C133.83 51.03, 113.97 32.21, 81.1 5.78 M125.99 39.5 C110.85 27.58, 94.29 17.59, 86.74 5.38 M125.99 39.5 C117.35 31.33, 104.81 20.89, 86.74 5.38" stroke="#fa5252" stroke-width="0.5" fill="none"></path><path d="M107.5 21.5 M107.5 21.5 C125.6 38.89, 138.19 48.58, 149.5 64.5 M107.5 21.5 C117.31 33.21, 129.4 45.62, 149.5 64.5 M149.5 64.5 C174.11 83.64, 168.17 89.95, 149.5 107.5 M149.5 64.5 C171.27 81.81, 168 82.85, 149.5 107.5 M149.5 107.5 C143.93 113.4, 133.82 123.58, 107.5 149.5 M149.5 107.5 C137.66 119.34, 125.69 129.2, 107.5 149.5 M107.5 149.5 C84.3 172.39, 82.83 174.57, 64.5 149.5 M107.5 149.5 C86.5 172.86, 83.48 175.38, 64.5 149.5 M64.5 149.5 C52.94 142.38, 47.37 132.51, 21.5 107.5 M64.5 149.5 C53.95 139.74, 41.57 130.06, 21.5 107.5 M21.5 107.5 C-2.25 86.76, -3.77 87.95, 21.5 64.5 M21.5 107.5 C-1.85 89.13, 4.05 84.02, 21.5 64.5 M21.5 64.5 C40.57 51.25, 58.7 28.9, 64.5 21.5 M21.5 64.5 C36.75 50.2, 54.06 33.14, 64.5 21.5 M64.5 21.5 C83.99 -0.57, 82.74 -0.59, 107.5 21.5 M64.5 21.5 C82.92 -0.38, 86.7 -0.81, 107.5 21.5" stroke="#000000" stroke-width="1" fill="none"></path></g><g transform="translate(694.1685119978913 116.99999999999997) rotate(0 43.900001525878906 24)"><text x="43.900001525878906" y="0" font-family="Helvetica, Segoe UI Emoji" font-size="20px" fill="#000000" text-anchor="middle" style="white-space: pre;" direction="ltr" dominant-baseline="text-before-edge">Gitops</text><text x="43.900001525878906" y="24" font-family="Helvetica, Segoe UI Emoji" font-size="20px" fill="#000000" text-anchor="middle" style="white-space: pre;" direction="ltr" dominant-baseline="text-before-edge">repository</text></g><g stroke-opacity="0.7" fill-opacity="0.7" transform="translate(733.1018463484772 188.99999999999997) rotate(0 8.449999809265137 9.5)"><text x="0" y="0" font-family="Helvetica, Segoe UI Emoji" font-size="16px" fill="#000000" text-anchor="start" style="white-space: pre;" direction="ltr" dominant-baseline="text-before-edge">git</text></g><g stroke-opacity="0.7" fill-opacity="0.7" stroke-linecap="round" transform="translate(436.60184634847724 82.27272727272722) rotate(0 78.4274809160305 69.86363636363636)"><path d="M8.64 8.84 C8.64 8.84, 8.64 8.84, 8.64 8.84 M8.64 8.84 C8.64 8.84, 8.64 8.84, 8.64 8.84 M3.13 21.27 C12.19 13.4, 14.67 9.22, 19.53 2.41 M3.13 21.27 C5.45 15.17, 10.62 10.55, 19.53 2.41 M2.21 28.43 C10.28 15.52, 21.8 8.09, 25.83 1.26 M2.21 28.43 C7.94 22.43, 12.08 17.77, 25.83 1.26 M2.61 34.07 C11.9 24.76, 19.76 11.53, 31.48 0.86 M2.61 34.07 C10.27 24.32, 20.67 16, 31.48 0.86 M2.35 40.47 C13.51 23.45, 25.03 8.14, 36.46 1.22 M2.35 40.47 C12.36 29.77, 18.3 19.07, 36.46 1.22 M2.09 46.86 C12.77 36.11, 17.45 29.69, 41.45 1.58 M2.09 46.86 C17.6 33.01, 28.84 18.13, 41.45 1.58 M2.48 52.51 C16.38 28.93, 33.71 12.88, 47.09 1.19 M2.48 52.51 C13.84 38.62, 26.68 22.78, 47.09 1.19 M2.22 58.9 C18.58 47.22, 28.96 33.21, 52.08 1.55 M2.22 58.9 C18.43 44.08, 32.33 24.48, 52.08 1.55 M2.61 64.55 C19.24 44.82, 41.71 21.97, 57.72 1.15 M2.61 64.55 C23.42 36.95, 44.9 13.55, 57.72 1.15 M2.35 70.95 C28.33 48.5, 52.22 17.05, 62.71 1.51 M2.35 70.95 C18.1 50.27, 38.04 31.39, 62.71 1.51 M2.09 77.34 C24.96 56.48, 41.79 34.56, 68.35 1.12 M2.09 77.34 C26.31 48.69, 52.03 20.98, 68.35 1.12 M2.49 82.99 C23.09 62.14, 45.41 33.13, 73.34 1.48 M2.49 82.99 C29.85 50.75, 56.78 21.65, 73.34 1.48 M2.22 89.38 C18.41 69.95, 33.42 54.88, 78.33 1.84 M2.22 89.38 C30.73 56.7, 56.69 28.91, 78.33 1.84 M2.62 95.03 C30.93 65.33, 64.72 30.84, 83.97 1.44 M2.62 95.03 C31.21 61.51, 54.73 30.93, 83.97 1.44 M2.36 101.43 C27.84 68.12, 58.93 36.98, 88.96 1.8 M2.36 101.43 C32.03 66.25, 61.36 33, 88.96 1.8 M2.1 107.82 C30.88 75.36, 52.07 48.33, 94.6 1.41 M2.1 107.82 C24.93 84.11, 50.62 54.24, 94.6 1.41 M1.83 114.22 C27.08 84.15, 57.26 56.29, 99.59 1.77 M1.83 114.22 C32.23 78.56, 63.15 42.16, 99.59 1.77 M3.54 118.35 C26.16 91.58, 48.64 73.43, 105.23 1.37 M3.54 118.35 C35.73 81.57, 67.32 43.73, 105.23 1.37 M5.25 122.49 C40.23 86.57, 72.72 46.69, 110.22 1.73 M5.25 122.49 C40.05 86.12, 70.1 51.07, 110.22 1.73 M7.61 125.87 C47.81 80.59, 91.63 34.63, 115.2 2.09 M7.61 125.87 C36.76 99.08, 61.94 66.85, 115.2 2.09 M9.32 130 C51.14 84.63, 82.98 45.06, 120.85 1.7 M9.32 130 C36.7 97.54, 69.29 64.82, 120.85 1.7 M11.68 133.38 C48.11 99.37, 81.24 60.18, 125.83 2.06 M11.68 133.38 C40.89 97.68, 71.22 63.23, 125.83 2.06 M15.36 135.25 C44.55 97.15, 80.57 59.08, 131.48 1.67 M15.36 135.25 C50.05 94.95, 85.27 57.56, 131.48 1.67 M19.03 137.12 C47.53 112.85, 70.4 83.41, 135.15 3.54 M19.03 137.12 C51.31 101.76, 86.7 64.05, 135.15 3.54 M22.7 138.99 C49.99 107.82, 80.96 73.54, 138.83 5.4 M22.7 138.99 C68.49 90.73, 109.17 41.12, 138.83 5.4 M27.69 139.35 C52.93 109.88, 83.31 77.82, 143.16 6.52 M27.69 139.35 C68.42 91.3, 114.72 40.5, 143.16 6.52 M32.68 139.71 C72.39 89.09, 119 40.23, 146.83 8.39 M32.68 139.71 C55.94 111.99, 79.43 83.2, 146.83 8.39 M37.67 140.07 C73.61 100.88, 116.22 55, 150.51 10.26 M37.67 140.07 C68.67 100.47, 100.19 64.43, 150.51 10.26 M43.31 139.67 C73.14 100.59, 109.85 67.32, 152.21 14.39 M43.31 139.67 C67.45 111.9, 91.16 87.64, 152.21 14.39 M48.3 140.03 C87.34 88.49, 127.69 43.03, 154.58 17.77 M48.3 140.03 C78.84 101.19, 112.76 66.29, 154.58 17.77 M53.94 139.64 C91.16 103.27, 117.73 64.83, 156.94 21.15 M53.94 139.64 C84.62 103.09, 117 63.46, 156.94 21.15 M58.93 140 C76.12 115.15, 97.62 93.75, 157.34 26.79 M58.93 140 C79.88 116.98, 99.31 92.97, 157.34 26.79 M64.57 139.61 C89.69 105.58, 120.64 73.61, 158.39 31.68 M64.57 139.61 C98.07 100.72, 133.38 60.7, 158.39 31.68 M69.56 139.97 C86.43 114.97, 108.01 94.56, 159.44 36.57 M69.56 139.97 C93.11 111.38, 119.2 83.51, 159.44 36.57 M74.54 140.33 C100.31 117.46, 125.23 90.82, 159.17 42.97 M74.54 140.33 C97.24 109.31, 124.27 83.63, 159.17 42.97 M80.19 139.93 C106.54 107.05, 132.65 76.56, 158.91 49.37 M80.19 139.93 C106.48 109.94, 135.78 81.15, 158.91 49.37 M85.17 140.29 C109.69 116.57, 127.75 88.85, 159.31 55.01 M85.17 140.29 C98.98 120.87, 114.25 105.36, 159.31 55.01 M90.82 139.9 C111.51 117.87, 129.53 99.65, 159.05 61.41 M90.82 139.9 C112.24 112.62, 133.29 92.5, 159.05 61.41 M95.8 140.26 C119.76 115.09, 146.22 83.17, 158.79 67.8 M95.8 140.26 C108.27 125.18, 125.38 106.67, 158.79 67.8 M101.45 139.86 C111.67 124.46, 130.28 103.75, 159.18 73.45 M101.45 139.86 C115.07 125.32, 125.2 111.96, 159.18 73.45 M106.43 140.22 C122.69 116.32, 137.57 102.55, 158.92 79.84 M106.43 140.22 C122.84 119.38, 137.62 101.94, 158.92 79.84 M111.42 140.58 C126.39 122.88, 147.53 103.99, 158.66 86.24 M111.42 140.58 C121.35 127.69, 134.71 115.05, 158.66 86.24 M117.06 140.19 C134.09 124.03, 152.03 101.91, 159.05 91.89 M117.06 140.19 C125.88 128.25, 133 120.51, 159.05 91.89 M122.71 139.79 C135.07 132.26, 142.1 120.24, 158.79 98.28 M122.71 139.79 C136.76 122.48, 150.68 107.5, 158.79 98.28 M128.35 139.4 C135.45 127.16, 146.9 116.17, 158.53 104.68 M128.35 139.4 C138.18 129.55, 143.33 120.88, 158.53 104.68 M134.65 138.25 C142.42 132.1, 146.37 121.95, 156.3 113.34 M134.65 138.25 C142.23 132.76, 145.72 125.14, 156.3 113.34 M138.98 139.36 C139.77 132.94, 146.92 134.53, 150.79 125.78 M138.98 139.36 C142.01 136.76, 145.2 130.03, 150.79 125.78" stroke="#15aabf" stroke-width="0.5" fill="none"></path><path d="M34.93 0 M34.93 0 C63.75 4.16, 91.92 2.15, 121.92 0 M34.93 0 C64.45 3.13, 95.09 2.75, 121.92 0 M121.92 0 C141.72 -2.57, 157.94 14.22, 156.85 34.93 M121.92 0 C141.2 -2.71, 153.48 7.76, 156.85 34.93 M156.85 34.93 C154.9 53.43, 158.49 69.13, 156.85 104.8 M156.85 34.93 C157.31 59.85, 158.32 80.06, 156.85 104.8 M156.85 104.8 C154.87 128.28, 145.1 136.39, 121.92 139.73 M156.85 104.8 C153.39 125.88, 146.94 138.64, 121.92 139.73 M121.92 139.73 C93.81 136.74, 60.78 137.89, 34.93 139.73 M121.92 139.73 C90.47 139.87, 57.77 141.03, 34.93 139.73 M34.93 139.73 C10.77 138.52, 2.29 125.79, 0 104.8 M34.93 139.73 C15.15 137.61, -4.08 126.16, 0 104.8 M0 104.8 C0.47 89.65, -2.2 69.51, 0 34.93 M0 104.8 C1.62 86.15, 2.81 63.7, 0 34.93 M0 34.93 C1.13 10.62, 13.9 1.33, 34.93 0 M0 34.93 C-4.28 7.41, 14.15 0.84, 34.93 0" stroke="#000000" stroke-width="1" fill="none"></path></g><g transform="translate(484.8126600892149 137.3369188063844) rotate(0 30.71666717529297 12.79944482997918)"><text x="30.71666717529297" y="0" font-family="Helvetica, Segoe UI Emoji" font-size="21.3324080499653px" fill="#000000" text-anchor="middle" style="white-space: pre;" direction="ltr" dominant-baseline="text-before-edge">Gimlet</text></g><g stroke-opacity="0.7" fill-opacity="0.7" stroke-linecap="round" transform="translate(10 61.682261347250915) rotate(0 87 86.99999999999997)"><path d="M14.68 72.39 C14.68 72.39, 14.68 72.39, 14.68 72.39 M14.68 72.39 C14.68 72.39, 14.68 72.39, 14.68 72.39 M7.86 86.34 C20.83 71.73, 41.55 53.95, 50.51 37.28 M7.86 86.34 C24.57 69.53, 35.91 54.05, 50.51 37.28 M7.6 92.73 C37.75 56.88, 62.02 23.4, 81.08 8.21 M7.6 92.73 C27.61 66.11, 51.62 42.74, 81.08 8.21 M10.62 95.36 C31.69 69.16, 46.81 49.49, 88.03 6.3 M10.62 95.36 C29.25 73.44, 47.85 51.35, 88.03 6.3 M12.98 98.74 C30.72 73.62, 48.45 55.11, 92.37 7.42 M12.98 98.74 C29.9 78.07, 43.81 60.43, 92.37 7.42 M15.34 102.12 C45.79 66.4, 70.59 39.87, 95.38 10.04 M15.34 102.12 C35.34 78.4, 57.88 52.42, 95.38 10.04 M18.36 104.74 C36.56 84.36, 53.02 67.56, 98.4 12.66 M18.36 104.74 C47.11 72.5, 76.14 40.55, 98.4 12.66 M20.73 108.12 C43.68 83.89, 75.24 53.85, 101.42 15.29 M20.73 108.12 C46.95 83.47, 66.98 57.35, 101.42 15.29 M23.75 110.74 C40.11 92.11, 52.55 76.34, 104.44 17.91 M23.75 110.74 C47.26 82.42, 72.82 55.33, 104.44 17.91 M26.76 113.37 C53.07 86.21, 81.96 48.44, 107.46 20.54 M26.76 113.37 C47.83 88.69, 70.04 65.17, 107.46 20.54 M29.78 115.99 C49.53 92.53, 67.85 68.35, 110.48 23.16 M29.78 115.99 C50.21 90.02, 72.8 63.01, 110.48 23.16 M32.15 119.37 C49.5 92.76, 74.84 72.19, 113.5 25.79 M32.15 119.37 C56.53 90.43, 81.98 64.67, 113.5 25.79 M35.16 121.99 C49.14 97.51, 71.03 80.84, 115.86 29.16 M35.16 121.99 C51.1 102.18, 67.85 80.39, 115.86 29.16 M38.18 124.62 C59.32 101.1, 79.01 78.2, 118.88 31.79 M38.18 124.62 C54.76 104.59, 72.66 83.97, 118.88 31.79 M40.55 128 C66.33 93.53, 92.57 66.94, 121.9 34.41 M40.55 128 C56.2 107.13, 73.78 87.31, 121.9 34.41 M43.57 130.62 C69.11 100.87, 95.86 76.87, 124.26 37.79 M43.57 130.62 C67.73 99.25, 93.98 70.48, 124.26 37.79 M46.58 133.25 C64.16 108.19, 88.4 93.38, 127.28 40.42 M46.58 133.25 C67.99 111.98, 87.03 87.27, 127.28 40.42 M49.6 135.87 C84.2 98.32, 111.71 66.45, 130.3 43.04 M49.6 135.87 C71.09 110.2, 96.07 83.99, 130.3 43.04 M51.97 139.25 C75.91 107.87, 101.62 84.25, 133.32 45.66 M51.97 139.25 C81.8 102.88, 115.09 67.06, 133.32 45.66 M54.98 141.87 C76.8 121.5, 94.87 93.25, 135.68 49.04 M54.98 141.87 C71.87 121.79, 89.91 105.07, 135.68 49.04 M58 144.5 C71.59 122.88, 92.92 103.5, 138.7 51.67 M58 144.5 C77.73 121.63, 97.24 100.23, 138.7 51.67 M60.37 147.88 C74.65 124.09, 92.65 107.81, 141.72 54.29 M60.37 147.88 C91.91 111.34, 118.68 76.55, 141.72 54.29 M63.38 150.5 C82.23 124.86, 108.9 107.05, 144.08 57.67 M63.38 150.5 C92.9 119.68, 121.12 87.35, 144.08 57.67 M66.4 153.12 C85.9 126.8, 107.03 109.29, 147.1 60.3 M66.4 153.12 C92.76 120.04, 120.78 90.07, 147.1 60.3 M69.42 155.75 C93.68 126.56, 116.83 100.37, 150.12 62.92 M69.42 155.75 C90.87 127.11, 116.18 99.16, 150.12 62.92 M71.79 159.13 C95.02 138.19, 116.18 110.06, 153.14 65.54 M71.79 159.13 C88.73 139.1, 106.36 117.84, 153.14 65.54 M74.8 161.75 C106.46 128.59, 138.01 89.91, 155.5 68.92 M74.8 161.75 C97.44 135.92, 119.68 108.46, 155.5 68.92 M78.48 163.62 C105.96 132.36, 131.52 94.98, 158.52 71.55 M78.48 163.62 C109.07 131.88, 139.9 97.29, 158.52 71.55 M81.5 166.25 C97.53 147.16, 112.77 129.44, 161.54 74.17 M81.5 166.25 C106.83 142.45, 130.1 112.74, 161.54 74.17 M85.17 168.12 C105.43 149.19, 115.56 128.35, 163.9 77.55 M85.17 168.12 C109.89 135.57, 138.57 104.44, 163.9 77.55 M90.82 167.72 C119.28 132.24, 151.28 98.97, 166.92 80.17 M90.82 167.72 C117.2 137.96, 141.99 109.47, 166.92 80.17 M102.36 160.53 C121.74 131.37, 146.69 109.01, 168.63 84.31 M102.36 160.53 C123.93 134.41, 145.58 108.91, 168.63 84.31 M143.43 119.39 C148.47 107.8, 162.27 96.12, 169.02 89.95 M143.43 119.39 C149.8 112.2, 158.96 103.24, 169.02 89.95" stroke="#fa5252" stroke-width="0.5" fill="none"></path><path d="M108.75 21.75 M108.75 21.75 C123.28 40.36, 142.28 52.26, 152.25 65.25 M108.75 21.75 C119.61 35.29, 134.47 44.17, 152.25 65.25 M152.25 65.25 C173.55 90.52, 172.83 88.24, 152.25 108.75 M152.25 65.25 C178 83.84, 178.58 88.51, 152.25 108.75 M152.25 108.75 C143.67 119.65, 129.92 131.38, 108.75 152.25 M152.25 108.75 C141.59 120.17, 130.17 130.28, 108.75 152.25 M108.75 152.25 C84.28 170.32, 86.03 177.81, 65.25 152.25 M108.75 152.25 C83.85 176.17, 82.85 170.45, 65.25 152.25 M65.25 152.25 C46.16 134.38, 38.17 123.88, 21.75 108.75 M65.25 152.25 C50.7 138.52, 33.46 121.1, 21.75 108.75 M21.75 108.75 C2.67 87.77, 1.14 89.92, 21.75 65.25 M21.75 108.75 C1.36 88.71, -2.16 85.18, 21.75 65.25 M21.75 65.25 C30.87 54.71, 47.32 37.87, 65.25 21.75 M21.75 65.25 C34.15 49.99, 48.44 36.75, 65.25 21.75 M65.25 21.75 C84.76 -2.13, 90.85 1.42, 108.75 21.75 M65.25 21.75 C88.82 2.01, 89.51 3.88, 108.75 21.75" stroke="#000000" stroke-width="1" fill="none"></path></g><g transform="translate(42.650001525878906 108.05726134725086) rotate(0 54.56666564941406 35.625)"><text x="54.56666564941406" y="0" font-family="Helvetica, Segoe UI Emoji" font-size="20px" fill="#000000" text-anchor="middle" style="white-space: pre;" direction="ltr" dominant-baseline="text-before-edge">Application</text><text x="54.56666564941406" y="23.75" font-family="Helvetica, Segoe UI Emoji" font-size="20px" fill="#000000" text-anchor="middle" style="white-space: pre;" direction="ltr" dominant-baseline="text-before-edge">source code</text><text x="54.56666564941406" y="47.5" font-family="Helvetica, Segoe UI Emoji" font-size="20px" fill="#000000" text-anchor="middle" style="white-space: pre;" direction="ltr" dominant-baseline="text-before-edge">repository</text></g><g stroke-opacity="0.7" fill-opacity="0.7" transform="translate(85.10184634847724 194.99999999999994) rotate(0 8.449999809265137 9.5)"><text x="0" y="0" font-family="Helvetica, Segoe UI Emoji" font-size="16px" fill="#000000" text-anchor="start" style="white-space: pre;" direction="ltr" dominant-baseline="text-before-edge">git</text></g><g stroke-linecap="round"><g transform="translate(602.5131729876812 136.59844082334294) rotate(0 30.445763716738952 -0.6143289614451461)"><path d="M-1.05 -0.5 C9.39 -0.5, 51.54 -0.81, 61.94 -0.95 M0.61 -1.81 C10.97 -1.52, 51.18 0.32, 61.15 0.58" stroke="#000000" stroke-width="1" fill="none"></path></g><g transform="translate(602.5131729876812 136.59844082334294) rotate(0 30.445763716738952 -0.6143289614451461)"><path d="M31.76 10.3 C39.6 7.35, 45.91 5.17, 62.3 0.4 M31.79 8.93 C39.48 7.4, 44.69 6.39, 60.67 1.3" stroke="#000000" stroke-width="1" fill="none"></path></g><g transform="translate(602.5131729876812 136.59844082334294) rotate(0 30.445763716738952 -0.6143289614451461)"><path d="M32.53 -10.2 C40.02 -8.17, 46.14 -5.36, 62.3 0.4 M32.56 -11.58 C39.94 -8.85, 45 -5.6, 60.67 1.3" stroke="#000000" stroke-width="1" fill="none"></path></g></g><mask></mask><g stroke-linecap="round" transform="translate(1129.8009231742387 125.15886932637449) rotate(0 26.5 18)"><path d="M-1.17 1.99 C13.96 -1.46, 29.2 -0.43, 52.34 1.7 M0.47 0.81 C15.24 -0.48, 28.71 -0.13, 52.44 -0.1 M53.29 -0.3 C53.88 7.69, 54.69 17.41, 51.98 37.42 M53.94 -0.12 C53.6 8.12, 53.94 14.08, 52.65 35.33 M53.23 37.96 C37.59 36.6, 21.22 36.02, -1.35 35.65 M53.86 35.63 C38.78 35.26, 24.14 35.67, -0.1 36.29 M-0.79 37.41 C-0.51 20.61, 1.62 8.73, 1.57 -0.39 M0.1 35.29 C0.23 28.36, -0.3 20.86, -0.41 -0.15" stroke="#000000" stroke-width="1" fill="none"></path></g><g transform="translate(1252.3009231742387 147.1588693263745) rotate(0 23.54166603088379 13)"><text x="23.54166603088379" y="0" font-family="Virgil, Segoe UI Emoji" font-size="20px" fill="#000000" text-anchor="middle" style="white-space: pre;" direction="ltr" dominant-baseline="text-before-edge">App2</text></g><g stroke-linecap="round" transform="translate(1249.3009231742387 145.1588693263745) rotate(0 26.5 18)"><path d="M-1.05 1.16 C13 -0.3, 26.71 -0.92, 54.46 -0.15 M0.63 -0.92 C21.69 -0.89, 40.62 -1.01, 52.13 -0.22 M51.86 -0.09 C54.41 14.27, 51.76 25.96, 53.11 34.49 M52.68 0.89 C53.38 10.13, 52.85 20.31, 53.99 36.35 M54.31 36.26 C36.72 35.58, 22.34 34.87, -1.26 34.4 M53.42 36.64 C36.53 35.74, 19.28 35.3, 0.91 35.74 M-0.34 35.26 C-0.13 21.35, 0.42 7.63, 0.28 1.83 M0.97 36.29 C-0.52 22.98, -0.65 9.02, -0.65 0.22" stroke="#000000" stroke-width="1" fill="none"></path></g><g stroke-linecap="round" transform="translate(1188.3009231742387 232.1588693263745) rotate(0 26.5 18)"><path d="M1.38 -0.53 C14.05 -1.44, 29.45 0.22, 52.5 0.6 M-0.85 -0.05 C12.06 -0.48, 24.98 -0.87, 53.13 -0.93 M53.24 -0.12 C52.08 8.42, 54.97 18.34, 54.66 37.64 M53.08 -0.43 C53.3 11.31, 53.08 24.34, 53.87 35.12 M51.32 37.83 C39.33 37.94, 28.22 36.59, -1.93 36.72 M52.72 35.75 C37.94 35.43, 21.42 36.06, 0.17 35.31 M1.67 36.5 C1.6 26.7, -1.28 18.47, 1.47 -0.47 M-0.81 36.45 C-0.56 23.87, -0.35 11.75, 0.65 -0.53" stroke="#000000" stroke-width="1" fill="none"></path></g><g transform="translate(930.6018463484772 35.99999999999994) rotate(0 53.349998474121094 13)"><text x="0" y="0" font-family="Virgil, Segoe UI Emoji" font-size="20px" fill="#000000" text-anchor="start" style="white-space: pre;" direction="ltr" dominant-baseline="text-before-edge">Kubernetes</text></g><g stroke-opacity="0.6" fill-opacity="0.6" stroke-linecap="round" transform="translate(923.6018463484772 86.99999999999994) rotate(0 60.5 60.5)"><path d="M12.12 3.91 C12.12 3.91, 12.12 3.91, 12.12 3.91 M12.12 3.91 C12.12 3.91, 12.12 3.91, 12.12 3.91 M3.98 19.36 C6.82 11, 16.51 8.34, 18.42 2.76 M3.98 19.36 C6.13 14.14, 9.78 12.3, 18.42 2.76 M3.07 26.51 C11.31 15.87, 20.11 4.78, 25.37 0.85 M3.07 26.51 C9.87 15.72, 20.97 8.23, 25.37 0.85 M2.8 32.91 C16.83 18.72, 21.91 11.03, 31.01 0.46 M2.8 32.91 C14.23 20.73, 21.11 13.05, 31.01 0.46 M3.2 38.56 C12.97 26.29, 20.03 22.75, 36 0.82 M3.2 38.56 C15.56 23.61, 27.18 9.72, 36 0.82 M2.94 44.95 C14.53 34.93, 26.76 17.15, 41.64 0.43 M2.94 44.95 C17.73 30.73, 31.68 14.27, 41.64 0.43 M2.68 51.35 C19.23 37.17, 28.71 20.14, 46.63 0.79 M2.68 51.35 C17.36 35.08, 29.46 18.76, 46.63 0.79 M3.07 56.99 C13.74 36.57, 35.02 24.59, 52.27 0.39 M3.07 56.99 C16.17 42.96, 30.3 27.6, 52.27 0.39 M2.81 63.39 C22.41 40.32, 42.25 13.69, 57.26 0.75 M2.81 63.39 C20.64 46.41, 33.02 29.42, 57.26 0.75 M3.2 69.04 C13.99 55.36, 32.03 36.22, 62.25 1.11 M3.2 69.04 C21.42 49.96, 36.54 35.05, 62.25 1.11 M2.94 75.43 C23.77 50.32, 49.04 19.57, 67.89 0.72 M2.94 75.43 C15.96 56.96, 29.7 41.9, 67.89 0.72 M2.68 81.83 C17.61 63.87, 38.57 40.63, 72.88 1.08 M2.68 81.83 C25.58 54.45, 48.68 26.45, 72.88 1.08 M0.45 90.49 C26.07 66.59, 52.66 32.34, 78.52 0.68 M0.45 90.49 C17.42 68.52, 37.07 47.69, 78.52 0.68 M1.5 95.38 C20.93 76.02, 44.89 46.8, 83.51 1.04 M1.5 95.38 C20.08 73.64, 39.5 54.79, 83.51 1.04 M2.55 100.27 C36.77 58.86, 61.08 23.94, 89.15 0.65 M2.55 100.27 C27.93 73.47, 48.37 47.36, 89.15 0.65 M3.6 105.16 C25.67 81.27, 43.12 58.02, 94.14 1.01 M3.6 105.16 C33 69.88, 60.3 36.79, 94.14 1.01 M4.65 110.05 C41.44 69.59, 74.01 36.23, 99.13 1.37 M4.65 110.05 C38.02 70.17, 69.41 33.18, 99.13 1.37 M7.67 112.67 C33.83 80.07, 61.46 43.04, 102.8 3.24 M7.67 112.67 C34.76 81.54, 61.52 48.64, 102.8 3.24 M10.69 115.29 C36.34 83.32, 57.9 56.47, 107.13 4.35 M10.69 115.29 C30.26 89.73, 53.33 63.79, 107.13 4.35 M13.71 117.92 C40.93 85.71, 71.41 53.67, 110.81 6.22 M13.71 117.92 C47.43 78.84, 79.04 42.41, 110.81 6.22 M17.38 119.79 C51.08 78.05, 86.95 41.82, 113.83 8.85 M17.38 119.79 C48.17 85.1, 78.42 49.23, 113.83 8.85 M21.72 120.9 C47.84 88.2, 78.23 53.65, 116.84 11.47 M21.72 120.9 C51.09 85.68, 81.12 49.85, 116.84 11.47 M25.39 122.77 C48.98 95.64, 61.53 74.95, 119.86 14.09 M25.39 122.77 C58.02 84.45, 88.5 50.37, 119.86 14.09 M31.03 122.38 C54.86 99.34, 76.38 74.77, 120.91 18.98 M31.03 122.38 C61.28 82.32, 95.51 42.86, 120.91 18.98 M36.02 122.74 C69.1 85.48, 98.93 48.13, 121.96 23.87 M36.02 122.74 C57.32 99.21, 77.67 76.25, 121.96 23.87 M41.66 122.34 C57.71 102.46, 76.94 78.7, 121.7 30.27 M41.66 122.34 C68.59 90.38, 95.25 60.93, 121.7 30.27 M46.65 122.7 C59.65 102.71, 80.8 86.72, 121.44 36.67 M46.65 122.7 C74.86 92.01, 101.82 60.6, 121.44 36.67 M51.64 123.06 C73.58 97.18, 94.14 71.32, 121.18 43.06 M51.64 123.06 C73.37 94.05, 99.07 65.98, 121.18 43.06 M57.28 122.67 C75.41 100.15, 98.56 80.17, 121.57 48.71 M57.28 122.67 C71.78 105.51, 87.14 87.98, 121.57 48.71 M62.27 123.03 C83.13 98.65, 100.42 82.48, 121.31 55.11 M62.27 123.03 C74.55 110.31, 87.71 97.02, 121.31 55.11 M67.91 122.63 C84.39 108.14, 93.6 93.52, 121.05 61.5 M67.91 122.63 C85.07 102.84, 100.18 81.16, 121.05 61.5 M72.9 122.99 C87.41 102.59, 104.64 86.95, 121.45 67.15 M72.9 122.99 C83.25 109.39, 93.37 98.28, 121.45 67.15 M78.54 122.6 C83.46 113.41, 98.15 104.47, 121.18 73.54 M78.54 122.6 C95.79 105.29, 110.4 85.72, 121.18 73.54 M83.53 122.96 C101.76 109.85, 114.3 89.42, 120.92 79.94 M83.53 122.96 C99.06 105.48, 111.99 90.45, 120.92 79.94 M88.52 123.32 C99.27 115.8, 108.53 98.98, 121.32 85.59 M88.52 123.32 C100.41 107.28, 114.5 93.44, 121.32 85.59 M93.5 123.68 C101.68 110.15, 111.26 101.54, 121.06 91.98 M93.5 123.68 C104.11 114.97, 110.98 104.53, 121.06 91.98 M100.46 121.78 C102.23 113.72, 110.99 112.85, 120.8 98.38 M100.46 121.78 C105.72 112.89, 114.44 103.66, 120.8 98.38 M110.04 116.85 C114.54 114.6, 115.3 113.89, 117.91 107.8 M110.04 116.85 C111.96 114.89, 114.74 111.87, 117.91 107.8 M12.19 117.07 C12.19 117.07, 12.19 117.07, 12.19 117.07 M12.19 117.07 C12.19 117.07, 12.19 117.07, 12.19 117.07 M21.6 119.95 C13.21 116.61, 14.97 113.96, 6.51 106.83 M21.6 119.95 C19.64 117.93, 15.05 112.63, 6.51 106.83 M25.74 118.25 C20.93 113.57, 9.79 105.91, 4.6 99.88 M25.74 118.25 C18.67 111.37, 16.06 108.71, 4.6 99.88 M31.38 117.85 C18.61 108.16, 11.47 100.12, 0.44 90.95 M31.38 117.85 C21.81 108.6, 7.94 99.17, 0.44 90.95 M37.78 118.11 C31.61 110.53, 21.25 100.57, 0.04 85.31 M37.78 118.11 C27.09 105.57, 14.21 95.18, 0.04 85.31 M44.17 118.37 C29.71 100.9, 12.42 86.79, 0.4 80.32 M44.17 118.37 C32.59 108.17, 18.5 96.43, 0.4 80.32 M49.82 117.98 C36.77 103.67, 20.15 91.21, 0.01 74.68 M49.82 117.98 C36.6 108.52, 26.66 95.48, 0.01 74.68 M56.22 118.24 C48.3 110.52, 35.38 99.97, 0.37 69.69 M56.22 118.24 C40.31 102.64, 22.95 85.85, 0.37 69.69 M62.61 118.5 C41.99 100.96, 18.48 79.96, -0.03 64.05 M62.61 118.5 C39.62 97.77, 13.26 75.24, -0.03 64.05 M68.26 118.11 C52.21 101.86, 29.11 81.71, 0.33 59.06 M68.26 118.11 C52.44 103.89, 36.29 91.84, 0.33 59.06 M74.65 118.37 C54.54 101.01, 33.48 77.64, -0.06 53.42 M74.65 118.37 C48.53 92.3, 19.48 70.25, -0.06 53.42 M81.05 118.63 C58.72 100.19, 33.74 81.71, 0.3 48.43 M81.05 118.63 C50.8 93.83, 26.58 71.37, 0.3 48.43 M86.7 118.24 C53.57 90.42, 25.65 65.11, -0.1 42.79 M86.7 118.24 C53.7 89.56, 23.12 64.52, -0.1 42.79 M93.09 118.5 C68.67 99.21, 50.84 81.85, 0.26 37.8 M93.09 118.5 C76.21 101.93, 57.5 86.68, 0.26 37.8 M97.98 117.45 C64.34 93.87, 38.42 63.42, -0.13 32.16 M97.98 117.45 C63.84 89.14, 29.57 60.7, -0.13 32.16 M102.87 116.4 C71.62 89.33, 42.34 65.97, 1.74 28.48 M102.87 116.4 C72.54 88.14, 43.84 64.02, 1.74 28.48 M109.27 116.66 C88.55 92.4, 60.96 76.15, 2.1 23.5 M109.27 116.66 C81.88 93.35, 57.96 70.2, 2.1 23.5 M111.89 113.64 C79.74 83.36, 42.14 54.34, 3.21 19.17 M111.89 113.64 C74.37 78.11, 34.85 43.21, 3.21 19.17 M115.27 111.28 C72.71 76.89, 39.73 37.89, 4.33 14.84 M115.27 111.28 C88.34 88.44, 59.01 62.31, 4.33 14.84 M117.89 108.26 C90.85 83.9, 71.1 59.22, 6.2 11.16 M117.89 108.26 C90.16 85.93, 65.32 60.26, 6.2 11.16 M119.01 103.93 C82.83 68.23, 42.38 33.22, 8.82 8.14 M119.01 103.93 C91.96 79.03, 63.12 56, 8.82 8.14 M120.12 99.6 C85.1 70.68, 47.92 38.24, 11.45 5.12 M120.12 99.6 C89.69 72.98, 63.58 49.98, 11.45 5.12 M121.99 95.92 C80.81 67.88, 48.19 30.45, 14.07 2.1 M121.99 95.92 C98.55 75.77, 76.57 60.31, 14.07 2.1 M122.35 90.93 C85.22 55.46, 42.88 19.2, 18.96 1.05 M122.35 90.93 C98.09 68.68, 72.03 50.74, 18.96 1.05 M121.96 85.29 C86.42 55.58, 58.74 26.94, 23.85 0 M121.96 85.29 C83.06 53.55, 47.23 20.56, 23.85 0 M122.32 80.3 C96.99 56.37, 64.16 24.79, 27.98 -1.7 M122.32 80.3 C96.5 58.36, 75.44 39.13, 27.98 -1.7 M121.93 74.66 C92.4 53.84, 68.84 26.52, 32.87 -2.75 M121.93 74.66 C97.9 51.66, 69.88 30.84, 32.87 -2.75 M122.29 69.67 C96.72 49.56, 73.8 23.35, 38.51 -3.15 M122.29 69.67 C98.35 45.67, 74.97 24.51, 38.51 -3.15 M122.65 64.69 C93.99 45.07, 69.04 19.08, 44.91 -2.89 M122.65 64.69 C91.45 37.72, 58.71 12.09, 44.91 -2.89 M122.25 59.04 C100.2 43.12, 87.77 25.59, 51.31 -2.63 M122.25 59.04 C105.54 42.96, 84.94 28.52, 51.31 -2.63 M122.61 54.06 C94.42 36.57, 73.16 17.68, 56.95 -3.02 M122.61 54.06 C111.35 44.31, 96.94 29.74, 56.95 -3.02 M122.22 48.41 C105.66 31.69, 85.3 19.07, 63.35 -2.76 M122.22 48.41 C105.63 33.15, 89.14 18.37, 63.35 -2.76 M122.58 43.43 C108.7 31.76, 87 19.19, 69.75 -2.5 M122.58 43.43 C104.87 27.18, 86.6 14.25, 69.75 -2.5 M122.18 37.78 C106.38 24.95, 95.54 20.39, 75.39 -2.89 M122.18 37.78 C109.39 26.53, 98.14 17.07, 75.39 -2.89 M122.54 32.8 C111.18 23.62, 89.04 9.81, 81.79 -2.63 M122.54 32.8 C109.88 23.23, 99.24 14.24, 81.79 -2.63 M122.9 27.81 C111.18 21.04, 108.49 12.77, 88.19 -2.37 M122.9 27.81 C114.63 17.91, 104.04 12.99, 88.19 -2.37 M121.75 21.51 C113.01 16.84, 111.42 9.04, 93.83 -2.76 M121.75 21.51 C110.37 10.21, 99.17 0.36, 93.83 -2.76 M119.85 14.56 C117.37 5.63, 108.36 3.92, 100.23 -2.5 M119.85 14.56 C114.31 9.74, 104.43 3.08, 100.23 -2.5" stroke="#4c6ef5" stroke-width="0.5" fill="none"></path><path d="M30.25 0 M30.25 0 C39.38 -2.04, 52.46 0.87, 90.75 0 M30.25 0 C53.69 -0.8, 75.9 -0.89, 90.75 0 M90.75 0 C113.73 0.29, 117.39 11.93, 121 30.25 M90.75 0 C112.62 -3.45, 117.5 8.74, 121 30.25 M121 30.25 C122.33 50.91, 119.03 66.78, 121 90.75 M121 30.25 C122.87 53.62, 119.14 77.65, 121 90.75 M121 90.75 C119.52 112.67, 108.02 120.98, 90.75 121 M121 90.75 C120.86 113.74, 113.56 124.66, 90.75 121 M90.75 121 C65.64 119.25, 49.23 123.67, 30.25 121 M90.75 121 C67.99 122.92, 49.37 120.48, 30.25 121 M30.25 121 C12.2 121.32, -1.26 108.23, 0 90.75 M30.25 121 C12.07 116.6, -2.1 107.26, 0 90.75 M0 90.75 C-0.24 75.84, 1.45 56.88, 0 30.25 M0 90.75 C1.32 77.04, -0.61 60.9, 0 30.25 M0 30.25 C-0.01 13.4, 7.58 0.81, 30.25 0 M0 30.25 C2.43 14.43, 9.51 3.5, 30.25 0" stroke="#000000" stroke-width="1" fill="none"></path></g><g transform="translate(961.6018463484772 133.99999999999994) rotate(0 18.725000381469727 12)"><text x="0" y="0" font-family="Helvetica, Segoe UI Emoji" font-size="20px" fill="#000000" text-anchor="start" style="white-space: pre;" direction="ltr" dominant-baseline="text-before-edge">Flux</text></g><g transform="translate(1137.3009231742387 130.1588693263745) rotate(0 19.133333206176758 13)"><text x="19.133333206176758" y="0" font-family="Virgil, Segoe UI Emoji" font-size="20px" fill="#000000" text-anchor="middle" style="white-space: pre;" direction="ltr" dominant-baseline="text-before-edge">App1</text></g><g transform="translate(1191.8009231742387 237.1588693263745) rotate(0 23.233333587646484 13)"><text x="23.233333587646484" y="0" font-family="Virgil, Segoe UI Emoji" font-size="20px" fill="#000000" text-anchor="middle" style="white-space: pre;" direction="ltr" dominant-baseline="text-before-edge">App3</text></g><g stroke-linecap="round"><g transform="translate(1057.3009231742387 172.1588693263745) rotate(0 42.72972696853799 8.885211573410771)"><path d="M0.93 -0.55 C15.31 2.35, 71.55 14.11, 85.51 17.2 M-0.05 1.78 C14.29 4.83, 70.87 15.39, 84.82 18.32" stroke="#000000" stroke-width="1" fill="none"></path></g><g transform="translate(1057.3009231742387 172.1588693263745) rotate(0 42.72972696853799 8.885211573410771)"><path d="M54.27 23.79 C60.79 21.04, 69.06 20.37, 83.34 17.98 M55.08 23.92 C62.48 22.19, 70.42 21.38, 85.76 18.97" stroke="#000000" stroke-width="1" fill="none"></path></g><g transform="translate(1057.3009231742387 172.1588693263745) rotate(0 42.72972696853799 8.885211573410771)"><path d="M58.23 3.65 C63.8 5.64, 71.13 9.69, 83.34 17.98 M59.04 3.79 C65.45 7.45, 72.32 12.04, 85.76 18.97" stroke="#000000" stroke-width="1" fill="none"></path></g></g><mask></mask><g stroke-linecap="round" transform="translate(243.80092317423873 95.57943466318721) rotate(0 54.5 54.5)"><path d="M10.42 20.99 C10.42 20.99, 10.42 20.99, 10.42 20.99 M10.42 20.99 C10.42 20.99, 10.42 20.99, 10.42 20.99 M6.67 33.72 C9.86 24.37, 17.44 20.75, 25.37 9.09 M5.73 31.11 C12.21 26.46, 15.61 19.35, 23.72 10.05 M0.66 45.01 C12.25 30.66, 23.65 17.73, 33.93 6.57 M0.65 43.69 C9.66 34.8, 17.26 25.33, 33.12 6.03 M0.83 48.26 C15.09 34.69, 26.49 23.52, 40.93 5.62 M2.08 48.42 C14.56 33, 28.75 16.81, 39.15 4.55 M1.65 53.51 C11.41 44.25, 20.25 30.98, 47.32 4.7 M2.24 53.72 C18.44 36.52, 33.34 17.22, 45.22 5.06 M5.76 59.27 C16.97 42.5, 31.41 26.96, 52.18 4.82 M3.65 59.78 C18.69 40.4, 36.02 21.44, 51.69 3.67 M5.69 66.36 C22.71 43.99, 38.86 23.76, 57.66 2.88 M4.84 63.94 C21.47 45.78, 37.63 27.11, 57.81 2.94 M5.53 70.97 C21.56 49.34, 40.2 27.26, 61.39 2.99 M4.95 70.26 C27.49 43.36, 51.57 16.35, 62.11 2.82 M5.39 76 C22.71 53.28, 39.47 35.47, 66.11 4.97 M4.15 76.37 C23.09 56.5, 39.39 34.3, 66.96 3.62 M6.22 79.81 C32.33 52.63, 52.78 26.37, 70.04 5.49 M7.5 78.82 C22.36 61.81, 36.41 46.27, 70.96 6.69 M11.08 83.87 C27.98 59.05, 46.83 37.3, 76.57 7.07 M10.11 82.19 C28.6 59.01, 48.99 35.2, 75.53 7.98 M13.99 85.52 C26.71 68.67, 45.85 48.97, 79.99 7.93 M13.01 86.43 C29.86 65.93, 48.17 45.51, 78.69 9.41 M15.02 90.27 C40.43 60.19, 66.1 29.06, 81.77 12.06 M14.15 88.65 C37.18 63.46, 61.02 36.11, 82.25 11.42 M15.93 91.14 C37.9 71.99, 56.27 47.7, 86.29 12.74 M17.1 93.05 C34.3 72.43, 53.68 52.03, 87.52 12.11 M17.9 97.97 C42.09 72.39, 62.63 47.02, 90.55 14.13 M18.66 95.69 C43.39 69.39, 67.08 41.16, 90 13.3 M21.18 100.73 C42.03 75.27, 63.35 46.86, 92.49 17.6 M21.55 100.38 C40.79 77.05, 62.31 53.76, 93.67 16.41 M24.81 100.54 C50.91 74.11, 74.32 44.22, 96.63 18.75 M26.01 101.23 C41.17 84.32, 55.92 65.77, 95.6 20 M27.66 100.59 C56.12 71.49, 81.12 39.27, 97.88 23.5 M29.91 102.06 C51 75.98, 74.77 51.62, 97.7 23.42 M34.72 105.57 C48.56 85.47, 64.54 66.96, 102.45 25.4 M32.95 103.43 C54.56 81.24, 72.55 59.78, 100.64 26.61 M38.18 104.61 C56.19 83.7, 73.11 64.15, 102.93 29.94 M36.72 106.02 C57.9 81.77, 78.25 57.78, 102.85 29.97 M40.39 106.47 C61.25 86.12, 75.66 64.9, 105.96 33.86 M41.62 107.46 C54.94 92.28, 67.27 77.42, 105.23 34.2 M44.3 108.94 C65.98 87.11, 83.04 66.42, 107.24 40.96 M46.28 108.16 C63.32 87.83, 82.4 67, 106.07 39.64 M48.38 110.13 C61.18 96.91, 75.51 83.14, 106.58 46.18 M50.46 110.19 C62.42 94.34, 73.84 80.69, 107.07 44.86 M55.03 107.5 C73.08 88.94, 89.13 69.53, 106.86 51.38 M56.4 108.84 C68.7 94.47, 80.57 81.12, 108.29 49.98 M63.62 107.98 C75.9 91.13, 93.72 71.69, 105.82 57.18 M61.87 108.23 C78.64 89.45, 94.66 72.71, 106.92 55.1 M67.51 105.74 C78.23 94.18, 88.35 84.44, 106.96 58.28 M68.08 107.66 C77.51 97.17, 85.96 86.63, 108.12 61.03 M75.69 107.52 C88.62 92.46, 99.6 75.35, 111.99 62.48 M73.38 106.44 C88.35 90.22, 101.71 73.46, 110.44 62.95 M76.48 107.94 C88.22 97.61, 98.14 82.28, 105.29 74.59 M77.92 107.75 C86.39 99.32, 94.55 88.94, 106.27 75.83" stroke="#868e96" stroke-width="0.5" fill="none"></path><path d="M32.24 5.26 C39.95 1.09, 51.35 -0.25, 60.68 0.79 C70.01 1.83, 80.83 5.98, 88.23 11.48 C95.62 16.98, 101.66 25.45, 105.05 33.79 C108.45 42.14, 109.8 52.69, 108.59 61.54 C107.38 70.4, 103.32 79.68, 97.81 86.93 C92.3 94.18, 83.71 101.32, 75.53 105.02 C67.34 108.71, 57.82 110.2, 48.7 109.09 C39.58 107.98, 28.11 103.92, 20.82 98.36 C13.53 92.8, 8.45 84.21, 4.99 75.73 C1.52 67.25, -0.86 56.57, 0.02 47.47 C0.9 38.38, 4.36 28.53, 10.28 21.15 C16.2 13.77, 30.79 6.03, 35.54 3.18 C40.29 0.33, 38.44 3.27, 38.77 4.07 M64.99 2.47 C73.48 2.99, 84.17 6.3, 90.82 12.2 C97.46 18.1, 102.13 29, 104.84 37.86 C107.56 46.72, 108.71 56.84, 107.13 65.38 C105.55 73.92, 101.02 82.53, 95.38 89.1 C89.73 95.68, 81.78 101.82, 73.25 104.85 C64.72 107.87, 53.41 109.07, 44.19 107.27 C34.97 105.47, 24.77 100.17, 17.93 94.04 C11.09 87.91, 5.82 79.03, 3.15 70.49 C0.47 61.95, -0.11 51.58, 1.89 42.8 C3.89 34.02, 9.48 24.26, 15.15 17.8 C20.82 11.34, 27.48 6.59, 35.92 4.04 C44.37 1.5, 60.73 2.68, 65.84 2.52 C70.95 2.35, 67.05 2.38, 66.57 3.07" stroke="#495057" stroke-width="1" fill="none"></path></g><g transform="translate(286.37193718721835 137.54211508852038) rotate(0 11.891666412353516 12.5)"><text x="11.891666412353516" y="0" font-family="Virgil, Segoe UI Emoji" font-size="20px" fill="#495057" text-anchor="middle" style="white-space: pre;" direction="ltr" dominant-baseline="text-before-edge">CI</text></g><g stroke-linecap="round"><g transform="translate(363.721042559783 149.17631775042452) rotate(0 34.626145588179725 -0.7513312987821408)"><path d="M0.77 0.51 C12.24 0.13, 58.2 -1.72, 69.54 -2.01 M-0.29 -0.27 C10.98 -0.52, 57.36 -0.91, 68.71 -0.84" stroke="#000000" stroke-width="1" fill="none"></path></g><g transform="translate(363.721042559783 149.17631775042452) rotate(0 34.626145588179725 -0.7513312987821408)"><path d="M41.39 9.87 C49.51 4.77, 60.94 3.09, 67.12 -1.96 M41.23 8.63 C47.33 7.48, 52.08 4.72, 68.76 -1.08" stroke="#000000" stroke-width="1" fill="none"></path></g><g transform="translate(363.721042559783 149.17631775042452) rotate(0 34.626145588179725 -0.7513312987821408)"><path d="M41.34 -10.65 C49.51 -8.36, 60.97 -2.65, 67.12 -1.96 M41.17 -11.89 C47.44 -8.73, 52.21 -7.18, 68.76 -1.08" stroke="#000000" stroke-width="1" fill="none"></path></g></g><mask></mask><g stroke-linecap="round"><g transform="translate(190.21259853292577 142.24700003709873) rotate(0 21.877398403593475 0.09447476183792247)"><path d="M0.85 1.02 C8.31 0.81, 36.82 -0.46, 43.91 -0.83 M-0.16 0.51 C7.27 0.43, 36.13 0.57, 43.27 0.43" stroke="#000000" stroke-width="1" fill="none"></path></g><g transform="translate(190.21259853292577 142.24700003709873) rotate(0 21.877398403593475 0.09447476183792247)"><path d="M24.66 8.94 C26.71 6.19, 30.73 3.95, 43.38 0.68 M22.24 7.76 C27.35 5.43, 32.19 4.5, 43.44 0.43" stroke="#000000" stroke-width="1" fill="none"></path></g><g transform="translate(190.21259853292577 142.24700003709873) rotate(0 21.877398403593475 0.09447476183792247)"><path d="M24.57 -5.88 C26.69 -5.23, 30.73 -4.06, 43.38 0.68 M22.15 -7.06 C27.2 -6.34, 32.06 -4.24, 43.44 0.43" stroke="#000000" stroke-width="1" fill="none"></path></g></g><mask></mask></svg>